<svg xmlns="http://www.w3.org/2000/svg" width="1500" height="1010" style="font-family:SimSun,serif"><defs><marker id="a" markerWidth="10" markerHeight="10" refX="8" refY="3" orient="auto"><path d="M0,0 L0,6 L9,3 z" fill="#63748a"/></marker></defs><rect width="100%" height="100%" fill="white"/><polyline points="750,140 750,200" fill="none" stroke="#63748a" stroke-width="3" marker-end="url(#a)"/><polyline points="750,310 750,345 280,345 280,380" fill="none" stroke="#63748a" stroke-width="3" marker-end="url(#a)"/><polyline points="750,345 1220,345 1220,380" fill="none" stroke="#63748a" stroke-width="3" marker-end="url(#a)"/><polyline points="490,450 540,450" fill="none" stroke="#63748a" stroke-width="3" marker-end="url(#a)"/><polyline points="750,530 750,620" fill="none" stroke="#63748a" stroke-width="3" marker-end="url(#a)"/><polyline points="280,530 280,620" fill="none" stroke="#63748a" stroke-width="3" marker-end="url(#a)"/><polyline points="960,450 985,450 985,590 1220,590 1220,620" fill="none" stroke="#63748a" stroke-width="3" marker-end="url(#a)"/><polyline points="750,760 750,860" fill="none" stroke="#63748a" stroke-width="3" marker-end="url(#a)"/><polyline points="1220,530 1455,530 1455,815 280,815 280,860" fill="none" stroke="#63748a" stroke-width="3" marker-end="url(#a)"/><polyline points="280,760 280,795 1220,795 1220,860" fill="none" stroke="#63748a" stroke-width="3" marker-end="url(#a)"/><rect x="230" y="20" width="1040" height="120" rx="14" fill="#f2f6fb" stroke="#40658b" stroke-width="3"/><text x="750.0" y="68.5" text-anchor="middle" font-size="31">知行浏览器工作台</text><text x="750.0" y="111.5" text-anchor="middle" font-size="31">React · TypeScript · 对话 / 附件 / 记忆 / 任务 / 角色</text><rect x="230" y="200" width="1040" height="110" rx="14" fill="#f2f6fb" stroke="#40658b" stroke-width="3"/><text x="750.0" y="243.5" text-anchor="middle" font-size="31">Spring Security 与 Web Controllers</text><text x="750.0" y="286.5" text-anchor="middle" font-size="31">Session / CSRF · REST / SSE · 当前用户身份</text><rect x="70" y="380" width="420" height="150" rx="14" fill="#f2f6fb" stroke="#40658b" stroke-width="3"/><text x="280.0" y="422.0" text-anchor="middle" font-size="28">ChatApplicationService</text><text x="280.0" y="465.0" text-anchor="middle" font-size="28">附件解析与上下文入口</text><text x="280.0" y="508.0" text-anchor="middle" font-size="28">会话归属 / ArtifactCollector</text><rect x="540" y="380" width="420" height="150" rx="14" fill="#f2f6fb" stroke="#40658b" stroke-width="3"/><text x="750.0" y="422.0" text-anchor="middle" font-size="28">ReActAgentExecutor</text><text x="750.0" y="465.0" text-anchor="middle" font-size="28">SkillRouter / 提示词组装</text><text x="750.0" y="508.0" text-anchor="middle" font-size="28">ExecutionLoop / ToolExecutor</text><rect x="1010" y="380" width="420" height="150" rx="14" fill="#f2f6fb" stroke="#40658b" stroke-width="3"/><text x="1220.0" y="422.0" text-anchor="middle" font-size="31">任务与通知服务</text><text x="1220.0" y="465.0" text-anchor="middle" font-size="31">定时调度 / outbox 写入</text><text x="1220.0" y="508.0" text-anchor="middle" font-size="31">用户级 SSE / 可选邮件</text><rect x="70" y="620" width="420" height="140" rx="14" fill="#f2f6fb" stroke="#40658b" stroke-width="3"/><text x="280.0" y="657.0" text-anchor="middle" font-size="26">多模态与业务能力</text><text x="280.0" y="700.0" text-anchor="middle" font-size="26">视觉 / ASR / TTS / 图像</text><text x="280.0" y="743.0" text-anchor="middle" font-size="26">文档解析 / 天气 / 地图 / 搜索</text><rect x="540" y="620" width="420" height="140" rx="14" fill="#f2f6fb" stroke="#40658b" stroke-width="3"/><text x="750.0" y="657.0" text-anchor="middle" font-size="31">上下文与能力配置</text><text x="750.0" y="700.0" text-anchor="middle" font-size="31">历史 / 摘要 / 计划 / 记忆</text><text x="750.0" y="743.0" text-anchor="middle" font-size="31">Skill YAML / 专项提示词</text><rect x="1010" y="620" width="420" height="140" rx="14" fill="#f2f6fb" stroke="#40658b" stroke-width="3"/><text x="1220.0" y="657.0" text-anchor="middle" font-size="31">外部服务与模型</text><text x="1220.0" y="700.0" text-anchor="middle" font-size="31">Qwen / DashScope</text><text x="1220.0" y="743.0" text-anchor="middle" font-size="31">天气 / 地图 / 搜索 API</text><rect x="70" y="860" width="420" height="120" rx="14" fill="#f2f6fb" stroke="#40658b" stroke-width="3"/><text x="280.0" y="908.5" text-anchor="middle" font-size="31">SQLite</text><text x="280.0" y="951.5" text-anchor="middle" font-size="31">账户 / 会话 / 计划 / 通知</text><rect x="540" y="860" width="420" height="120" rx="14" fill="#f2f6fb" stroke="#40658b" stroke-width="3"/><text x="750.0" y="908.5" text-anchor="middle" font-size="31">Qdrant 与 Embedding</text><text x="750.0" y="951.5" text-anchor="middle" font-size="31">长期记忆 / Skill 知识检索</text><rect x="1010" y="860" width="420" height="120" rx="14" fill="#f2f6fb" stroke="#40658b" stroke-width="3"/><text x="1220.0" y="908.5" text-anchor="middle" font-size="31">本地文件存储</text><text x="1220.0" y="951.5" text-anchor="middle" font-size="31">附件 / 生成产物</text></svg>